<mxfile host="Electron" agent="Mozilla/5.0 (Macintosh; Intel Mac OS X 10_15_7) AppleWebKit/537.36 (KHTML, like Gecko) draw.io/28.1.2 Chrome/138.0.7204.243 Electron/37.4.0 Safari/537.36" version="28.1.2">
  <diagram name="第 1 页" id="ZVUA54hik592To5Vpqby">
    <mxGraphModel dx="588" dy="503" grid="0" gridSize="10" guides="1" tooltips="1" connect="1" arrows="1" fold="1" page="1" pageScale="1" pageWidth="1000" pageHeight="5000" math="0" shadow="0">
      <root>
        <mxCell id="0" />
        <mxCell id="1" parent="0" />
        <mxCell id="60jKKPhYTKhftU9wOPC6-452" value="" style="rounded=1;whiteSpace=wrap;html=1;strokeColor=#d6b656;align=center;verticalAlign=middle;fontFamily=Helvetica;fontSize=12;fillColor=#fff2cc;" vertex="1" parent="1">
          <mxGeometry x="51.5" y="1865" width="769" height="498" as="geometry" />
        </mxCell>
        <mxCell id="60jKKPhYTKhftU9wOPC6-423" value="" style="rounded=1;whiteSpace=wrap;html=1;strokeColor=#82b366;align=center;verticalAlign=middle;fontFamily=Helvetica;fontSize=12;fontColor=default;fillColor=#d5e8d4;" vertex="1" parent="1">
          <mxGeometry x="71" y="2060" width="730" height="270" as="geometry" />
        </mxCell>
        <mxCell id="60jKKPhYTKhftU9wOPC6-44" value="" style="group" vertex="1" connectable="0" parent="1">
          <mxGeometry x="31" y="46" width="929" height="510" as="geometry" />
        </mxCell>
        <mxCell id="60jKKPhYTKhftU9wOPC6-14" style="edgeStyle=orthogonalEdgeStyle;rounded=0;orthogonalLoop=1;jettySize=auto;html=1;exitX=0.5;exitY=1;exitDx=0;exitDy=0;entryX=0.5;entryY=0;entryDx=0;entryDy=0;" edge="1" parent="60jKKPhYTKhftU9wOPC6-44" source="60jKKPhYTKhftU9wOPC6-1" target="60jKKPhYTKhftU9wOPC6-2">
          <mxGeometry relative="1" as="geometry" />
        </mxCell>
        <mxCell id="60jKKPhYTKhftU9wOPC6-1" value="" style="ellipse;whiteSpace=wrap;html=1;aspect=fixed;" vertex="1" parent="60jKKPhYTKhftU9wOPC6-44">
          <mxGeometry x="329" width="40" height="40" as="geometry" />
        </mxCell>
        <mxCell id="60jKKPhYTKhftU9wOPC6-15" style="edgeStyle=orthogonalEdgeStyle;rounded=0;orthogonalLoop=1;jettySize=auto;html=1;exitX=0.5;exitY=1;exitDx=0;exitDy=0;entryX=0.5;entryY=0;entryDx=0;entryDy=0;" edge="1" parent="60jKKPhYTKhftU9wOPC6-44" source="60jKKPhYTKhftU9wOPC6-2" target="60jKKPhYTKhftU9wOPC6-3">
          <mxGeometry relative="1" as="geometry" />
        </mxCell>
        <mxCell id="60jKKPhYTKhftU9wOPC6-2" value="&lt;font style=&quot;font-size: 24px;&quot;&gt;NEW&lt;/font&gt;" style="rounded=1;whiteSpace=wrap;html=1;fillColor=#f5f5f5;fontColor=#333333;strokeColor=#666666;" vertex="1" parent="60jKKPhYTKhftU9wOPC6-44">
          <mxGeometry x="289" y="80" width="120" height="60" as="geometry" />
        </mxCell>
        <mxCell id="60jKKPhYTKhftU9wOPC6-34" value="" style="edgeStyle=orthogonalEdgeStyle;rounded=0;orthogonalLoop=1;jettySize=auto;html=1;" edge="1" parent="60jKKPhYTKhftU9wOPC6-44" source="60jKKPhYTKhftU9wOPC6-3" target="60jKKPhYTKhftU9wOPC6-5">
          <mxGeometry relative="1" as="geometry" />
        </mxCell>
        <mxCell id="60jKKPhYTKhftU9wOPC6-3" value="" style="rounded=1;whiteSpace=wrap;html=1;fillColor=#fff2cc;strokeColor=#d6b656;" vertex="1" parent="60jKKPhYTKhftU9wOPC6-44">
          <mxGeometry x="259" y="190" width="180" height="220" as="geometry" />
        </mxCell>
        <mxCell id="60jKKPhYTKhftU9wOPC6-4" value="&lt;font style=&quot;font-size: 24px;&quot;&gt;TIMED_WAITING&lt;/font&gt;" style="rounded=1;whiteSpace=wrap;html=1;fillColor=#dae8fc;strokeColor=#6c8ebf;" vertex="1" parent="60jKKPhYTKhftU9wOPC6-44">
          <mxGeometry x="729" y="410" width="200" height="60" as="geometry" />
        </mxCell>
        <mxCell id="60jKKPhYTKhftU9wOPC6-5" value="&lt;span style=&quot;font-size: 24px;&quot;&gt;TERMINATED&lt;/span&gt;" style="rounded=1;whiteSpace=wrap;html=1;fillColor=#f5f5f5;strokeColor=#666666;fontColor=#333333;" vertex="1" parent="60jKKPhYTKhftU9wOPC6-44">
          <mxGeometry x="262" y="450" width="174" height="60" as="geometry" />
        </mxCell>
        <mxCell id="60jKKPhYTKhftU9wOPC6-6" value="&lt;font style=&quot;font-size: 24px;&quot;&gt;WAITING&lt;/font&gt;" style="rounded=1;whiteSpace=wrap;html=1;fillColor=#dae8fc;strokeColor=#6c8ebf;" vertex="1" parent="60jKKPhYTKhftU9wOPC6-44">
          <mxGeometry x="729" y="110" width="120" height="60" as="geometry" />
        </mxCell>
        <mxCell id="60jKKPhYTKhftU9wOPC6-9" value="&lt;font style=&quot;font-size: 24px;&quot;&gt;BLOCKED&lt;/font&gt;" style="rounded=1;whiteSpace=wrap;html=1;fillColor=#f8cecc;strokeColor=#b85450;" vertex="1" parent="60jKKPhYTKhftU9wOPC6-44">
          <mxGeometry y="270" width="129" height="60" as="geometry" />
        </mxCell>
        <mxCell id="60jKKPhYTKhftU9wOPC6-10" value="&lt;font style=&quot;font-size: 24px;&quot;&gt;Runnable&lt;/font&gt;" style="text;html=1;align=center;verticalAlign=middle;whiteSpace=wrap;rounded=0;" vertex="1" parent="60jKKPhYTKhftU9wOPC6-44">
          <mxGeometry x="319" y="200" width="60" height="30" as="geometry" />
        </mxCell>
        <mxCell id="60jKKPhYTKhftU9wOPC6-37" style="edgeStyle=orthogonalEdgeStyle;rounded=0;orthogonalLoop=1;jettySize=auto;html=1;exitX=0.25;exitY=1;exitDx=0;exitDy=0;entryX=0.25;entryY=0;entryDx=0;entryDy=0;" edge="1" parent="60jKKPhYTKhftU9wOPC6-44" source="60jKKPhYTKhftU9wOPC6-11" target="60jKKPhYTKhftU9wOPC6-12">
          <mxGeometry relative="1" as="geometry" />
        </mxCell>
        <mxCell id="60jKKPhYTKhftU9wOPC6-11" value="&lt;span style=&quot;font-size: 24px;&quot;&gt;READY&lt;/span&gt;" style="rounded=1;whiteSpace=wrap;html=1;fillColor=#d5e8d4;strokeColor=#82b366;" vertex="1" parent="60jKKPhYTKhftU9wOPC6-44">
          <mxGeometry x="289" y="240" width="120" height="60" as="geometry" />
        </mxCell>
        <mxCell id="60jKKPhYTKhftU9wOPC6-38" style="edgeStyle=orthogonalEdgeStyle;rounded=0;orthogonalLoop=1;jettySize=auto;html=1;exitX=0.75;exitY=0;exitDx=0;exitDy=0;entryX=0.75;entryY=1;entryDx=0;entryDy=0;" edge="1" parent="60jKKPhYTKhftU9wOPC6-44" source="60jKKPhYTKhftU9wOPC6-12" target="60jKKPhYTKhftU9wOPC6-11">
          <mxGeometry relative="1" as="geometry" />
        </mxCell>
        <mxCell id="60jKKPhYTKhftU9wOPC6-12" value="&lt;font style=&quot;font-size: 24px;&quot;&gt;RUNNING&lt;/font&gt;" style="rounded=1;whiteSpace=wrap;html=1;fillColor=#d5e8d4;strokeColor=#82b366;" vertex="1" parent="60jKKPhYTKhftU9wOPC6-44">
          <mxGeometry x="289" y="330" width="120" height="60" as="geometry" />
        </mxCell>
        <mxCell id="60jKKPhYTKhftU9wOPC6-17" value="&lt;font style=&quot;font-size: 18px;&quot;&gt;new Thread&lt;/font&gt;" style="text;html=1;align=center;verticalAlign=middle;whiteSpace=wrap;rounded=0;" vertex="1" parent="60jKKPhYTKhftU9wOPC6-44">
          <mxGeometry x="349" y="40" width="130" height="30" as="geometry" />
        </mxCell>
        <mxCell id="60jKKPhYTKhftU9wOPC6-18" value="&lt;span style=&quot;font-size: 18px;&quot;&gt;Thread.start&lt;/span&gt;" style="text;html=1;align=center;verticalAlign=middle;whiteSpace=wrap;rounded=0;" vertex="1" parent="60jKKPhYTKhftU9wOPC6-44">
          <mxGeometry x="349" y="150" width="130" height="30" as="geometry" />
        </mxCell>
        <mxCell id="60jKKPhYTKhftU9wOPC6-19" value="&lt;span style=&quot;font-size: 18px;&quot;&gt;Object.wait&lt;/span&gt;&lt;div&gt;&lt;span style=&quot;font-size: 18px;&quot;&gt;Thread.join&lt;/span&gt;&lt;/div&gt;" style="text;html=1;align=center;verticalAlign=middle;whiteSpace=wrap;rounded=0;" vertex="1" parent="60jKKPhYTKhftU9wOPC6-44">
          <mxGeometry x="489" y="160" width="130" height="30" as="geometry" />
        </mxCell>
        <mxCell id="60jKKPhYTKhftU9wOPC6-22" value="" style="shape=flexArrow;endArrow=classic;startArrow=classic;html=1;rounded=0;entryX=0;entryY=0.5;entryDx=0;entryDy=0;exitX=1;exitY=0.5;exitDx=0;exitDy=0;" edge="1" parent="60jKKPhYTKhftU9wOPC6-44" target="60jKKPhYTKhftU9wOPC6-6">
          <mxGeometry width="100" height="100" relative="1" as="geometry">
            <mxPoint x="439" y="285" as="sourcePoint" />
            <mxPoint x="549" y="225" as="targetPoint" />
          </mxGeometry>
        </mxCell>
        <mxCell id="60jKKPhYTKhftU9wOPC6-23" value="&lt;span style=&quot;font-size: 18px;&quot;&gt;Object.notify&lt;/span&gt;&lt;div&gt;&lt;span style=&quot;font-size: 18px;&quot;&gt;Object.notifyAll&lt;/span&gt;&lt;/div&gt;" style="text;html=1;align=center;verticalAlign=middle;whiteSpace=wrap;rounded=0;" vertex="1" parent="60jKKPhYTKhftU9wOPC6-44">
          <mxGeometry x="579" y="220" width="130" height="30" as="geometry" />
        </mxCell>
        <mxCell id="60jKKPhYTKhftU9wOPC6-24" value="" style="shape=flexArrow;endArrow=classic;startArrow=classic;html=1;rounded=0;entryX=0;entryY=0.5;entryDx=0;entryDy=0;exitX=1;exitY=0.5;exitDx=0;exitDy=0;" edge="1" parent="60jKKPhYTKhftU9wOPC6-44" target="60jKKPhYTKhftU9wOPC6-4">
          <mxGeometry width="100" height="100" relative="1" as="geometry">
            <mxPoint x="439" y="310" as="sourcePoint" />
            <mxPoint x="549" y="370" as="targetPoint" />
          </mxGeometry>
        </mxCell>
        <mxCell id="60jKKPhYTKhftU9wOPC6-25" value="&lt;span style=&quot;font-size: 18px;&quot;&gt;Object.wait(long)&lt;/span&gt;&lt;div&gt;&lt;span style=&quot;font-size: 18px;&quot;&gt;Thread.join(long)&lt;/span&gt;&lt;/div&gt;&lt;div&gt;&lt;span style=&quot;font-size: 18px;&quot;&gt;Thread.sleep(long)&lt;/span&gt;&lt;/div&gt;" style="text;html=1;align=center;verticalAlign=middle;whiteSpace=wrap;rounded=0;" vertex="1" parent="60jKKPhYTKhftU9wOPC6-44">
          <mxGeometry x="609" y="320" width="130" height="30" as="geometry" />
        </mxCell>
        <mxCell id="60jKKPhYTKhftU9wOPC6-27" value="&lt;span style=&quot;font-size: 18px;&quot;&gt;Object.notify&lt;/span&gt;&lt;div&gt;&lt;span style=&quot;font-size: 18px;&quot;&gt;Object.notifyAll&lt;/span&gt;&lt;/div&gt;" style="text;html=1;align=center;verticalAlign=middle;whiteSpace=wrap;rounded=0;" vertex="1" parent="60jKKPhYTKhftU9wOPC6-44">
          <mxGeometry x="489" y="410" width="130" height="30" as="geometry" />
        </mxCell>
        <mxCell id="60jKKPhYTKhftU9wOPC6-31" value="" style="shape=flexArrow;endArrow=classic;startArrow=classic;html=1;rounded=0;entryX=0;entryY=0.5;entryDx=0;entryDy=0;exitX=1;exitY=0.5;exitDx=0;exitDy=0;" edge="1" parent="60jKKPhYTKhftU9wOPC6-44" source="60jKKPhYTKhftU9wOPC6-9" target="60jKKPhYTKhftU9wOPC6-3">
          <mxGeometry width="100" height="100" relative="1" as="geometry">
            <mxPoint x="509" y="395" as="sourcePoint" />
            <mxPoint x="799" y="250" as="targetPoint" />
          </mxGeometry>
        </mxCell>
        <mxCell id="60jKKPhYTKhftU9wOPC6-32" value="&lt;span style=&quot;font-size: 18px;&quot;&gt;lock&lt;/span&gt;" style="text;html=1;align=center;verticalAlign=middle;whiteSpace=wrap;rounded=0;" vertex="1" parent="60jKKPhYTKhftU9wOPC6-44">
          <mxGeometry x="129" y="255" width="130" height="30" as="geometry" />
        </mxCell>
        <mxCell id="60jKKPhYTKhftU9wOPC6-126" value="&lt;span style=&quot;font-size: 18px;&quot;&gt;unlock&lt;/span&gt;" style="text;html=1;align=center;verticalAlign=middle;whiteSpace=wrap;rounded=0;" vertex="1" parent="60jKKPhYTKhftU9wOPC6-44">
          <mxGeometry x="129" y="320" width="130" height="30" as="geometry" />
        </mxCell>
        <mxCell id="60jKKPhYTKhftU9wOPC6-73" value="" style="group" vertex="1" connectable="0" parent="1">
          <mxGeometry x="180" y="616" width="420" height="404" as="geometry" />
        </mxCell>
        <mxCell id="60jKKPhYTKhftU9wOPC6-39" value="" style="rounded=1;whiteSpace=wrap;html=1;fillColor=#fff2cc;strokeColor=#d6b656;" vertex="1" parent="60jKKPhYTKhftU9wOPC6-73">
          <mxGeometry width="180" height="204" as="geometry" />
        </mxCell>
        <mxCell id="60jKKPhYTKhftU9wOPC6-40" value="&lt;font style=&quot;font-size: 24px;&quot;&gt;线程1&lt;/font&gt;" style="text;html=1;align=center;verticalAlign=middle;whiteSpace=wrap;rounded=0;" vertex="1" parent="60jKKPhYTKhftU9wOPC6-73">
          <mxGeometry x="28.5" y="22" width="123" height="30" as="geometry" />
        </mxCell>
        <mxCell id="60jKKPhYTKhftU9wOPC6-42" value="" style="rounded=1;whiteSpace=wrap;html=1;fillColor=#fff2cc;strokeColor=#d6b656;" vertex="1" parent="60jKKPhYTKhftU9wOPC6-73">
          <mxGeometry x="240" width="180" height="204" as="geometry" />
        </mxCell>
        <mxCell id="60jKKPhYTKhftU9wOPC6-43" value="&lt;font style=&quot;font-size: 24px;&quot;&gt;线程1&lt;/font&gt;" style="text;html=1;align=center;verticalAlign=middle;whiteSpace=wrap;rounded=0;" vertex="1" parent="60jKKPhYTKhftU9wOPC6-73">
          <mxGeometry x="268.5" y="22" width="123" height="30" as="geometry" />
        </mxCell>
        <mxCell id="60jKKPhYTKhftU9wOPC6-45" value="" style="ellipse;whiteSpace=wrap;html=1;fillColor=#dae8fc;strokeColor=#6c8ebf;" vertex="1" parent="60jKKPhYTKhftU9wOPC6-73">
          <mxGeometry x="6.5" y="63.5" width="164" height="113.5" as="geometry" />
        </mxCell>
        <mxCell id="60jKKPhYTKhftU9wOPC6-46" value="&lt;span style=&quot;color: rgba(0, 0, 0, 0); font-family: monospace; font-size: 0px; text-align: start; text-wrap-mode: nowrap;&quot;&gt;%3CmxGraphModel%3E%3Croot%3E%3CmxCell%20id%3D%220%22%2F%3E%3CmxCell%20id%3D%221%22%20parent%3D%220%22%2F%3E%3CmxCell%20id%3D%222%22%20value%3D%22%26lt%3Bfont%20style%3D%26quot%3Bfont-size%3A%2018px%3B%26quot%3B%26gt%3B%E5%B7%A5%E4%BD%9C%E5%86%85%E5%AD%98%26lt%3B%2Ffont%26gt%3B%22%20style%3D%22text%3Bhtml%3D1%3Balign%3Dcenter%3BverticalAlign%3Dmiddle%3BwhiteSpace%3Dwrap%3Brounded%3D0%3B%22%20vertex%3D%221%22%20parent%3D%221%22%3E%3CmxGeometry%20x%3D%22228.75%22%20y%3D%22777%22%20width%3D%2282.5%22%20height%3D%2230%22%20as%3D%22geometry%22%2F%3E%3C%2FmxCell%3E%3C%2Froot%3E%3C%2FmxGraphModel%3E&lt;/span&gt;" style="ellipse;whiteSpace=wrap;html=1;fillColor=#dae8fc;strokeColor=#6c8ebf;" vertex="1" parent="60jKKPhYTKhftU9wOPC6-73">
          <mxGeometry x="248.5" y="63" width="163" height="114" as="geometry" />
        </mxCell>
        <mxCell id="60jKKPhYTKhftU9wOPC6-47" value="" style="rounded=1;whiteSpace=wrap;html=1;fillColor=#fff2cc;strokeColor=#d6b656;" vertex="1" parent="60jKKPhYTKhftU9wOPC6-73">
          <mxGeometry y="244" width="420" height="160" as="geometry" />
        </mxCell>
        <mxCell id="60jKKPhYTKhftU9wOPC6-48" value="&lt;font style=&quot;font-size: 24px;&quot;&gt;主内存&lt;/font&gt;" style="text;html=1;align=center;verticalAlign=middle;whiteSpace=wrap;rounded=0;" vertex="1" parent="60jKKPhYTKhftU9wOPC6-73">
          <mxGeometry x="145.5" y="364" width="123" height="30" as="geometry" />
        </mxCell>
        <mxCell id="60jKKPhYTKhftU9wOPC6-51" value="&lt;font style=&quot;font-size: 18px;&quot;&gt;共享变量&lt;/font&gt;" style="rounded=1;whiteSpace=wrap;html=1;fillColor=#f8cecc;strokeColor=#b85450;" vertex="1" parent="60jKKPhYTKhftU9wOPC6-73">
          <mxGeometry x="42.75" y="274" width="91.5" height="60" as="geometry" />
        </mxCell>
        <mxCell id="60jKKPhYTKhftU9wOPC6-52" value="&lt;font style=&quot;font-size: 18px;&quot;&gt;共享变量&lt;/font&gt;" style="rounded=1;whiteSpace=wrap;html=1;fillColor=#f8cecc;strokeColor=#b85450;" vertex="1" parent="60jKKPhYTKhftU9wOPC6-73">
          <mxGeometry x="164.25" y="274" width="91.5" height="60" as="geometry" />
        </mxCell>
        <mxCell id="60jKKPhYTKhftU9wOPC6-53" value="&lt;font style=&quot;font-size: 18px;&quot;&gt;共享变量&lt;/font&gt;" style="rounded=1;whiteSpace=wrap;html=1;fillColor=#f8cecc;strokeColor=#b85450;" vertex="1" parent="60jKKPhYTKhftU9wOPC6-73">
          <mxGeometry x="282.75" y="274" width="91.5" height="60" as="geometry" />
        </mxCell>
        <mxCell id="60jKKPhYTKhftU9wOPC6-62" value="" style="endArrow=classic;startArrow=classic;html=1;rounded=0;entryX=0.5;entryY=1;entryDx=0;entryDy=0;exitX=0.5;exitY=0;exitDx=0;exitDy=0;" edge="1" parent="60jKKPhYTKhftU9wOPC6-73" source="60jKKPhYTKhftU9wOPC6-51" target="60jKKPhYTKhftU9wOPC6-45">
          <mxGeometry width="50" height="50" relative="1" as="geometry">
            <mxPoint x="-70" y="294" as="sourcePoint" />
            <mxPoint x="-20" y="244" as="targetPoint" />
          </mxGeometry>
        </mxCell>
        <mxCell id="60jKKPhYTKhftU9wOPC6-63" value="" style="endArrow=classic;startArrow=classic;html=1;rounded=0;entryX=0.5;entryY=1;entryDx=0;entryDy=0;exitX=0.5;exitY=0;exitDx=0;exitDy=0;" edge="1" parent="60jKKPhYTKhftU9wOPC6-73" target="60jKKPhYTKhftU9wOPC6-46">
          <mxGeometry width="50" height="50" relative="1" as="geometry">
            <mxPoint x="329.38" y="274" as="sourcePoint" />
            <mxPoint x="329.38" y="164" as="targetPoint" />
          </mxGeometry>
        </mxCell>
        <mxCell id="60jKKPhYTKhftU9wOPC6-64" value="" style="endArrow=classic;startArrow=classic;html=1;rounded=0;entryX=0.5;entryY=1;entryDx=0;entryDy=0;exitX=0.5;exitY=0;exitDx=0;exitDy=0;" edge="1" parent="60jKKPhYTKhftU9wOPC6-73" source="60jKKPhYTKhftU9wOPC6-53" target="60jKKPhYTKhftU9wOPC6-45">
          <mxGeometry width="50" height="50" relative="1" as="geometry">
            <mxPoint x="89.38" y="274" as="sourcePoint" />
            <mxPoint x="89.38" y="164" as="targetPoint" />
          </mxGeometry>
        </mxCell>
        <mxCell id="60jKKPhYTKhftU9wOPC6-65" value="" style="endArrow=classic;startArrow=classic;html=1;rounded=0;entryX=0.5;entryY=1;entryDx=0;entryDy=0;exitX=0.5;exitY=0;exitDx=0;exitDy=0;" edge="1" parent="60jKKPhYTKhftU9wOPC6-73" source="60jKKPhYTKhftU9wOPC6-51" target="60jKKPhYTKhftU9wOPC6-46">
          <mxGeometry width="50" height="50" relative="1" as="geometry">
            <mxPoint x="569.62" y="274" as="sourcePoint" />
            <mxPoint x="330" y="164" as="targetPoint" />
          </mxGeometry>
        </mxCell>
        <mxCell id="60jKKPhYTKhftU9wOPC6-66" value="" style="endArrow=classic;startArrow=classic;html=1;rounded=0;entryX=0.5;entryY=1;entryDx=0;entryDy=0;exitX=0.5;exitY=0;exitDx=0;exitDy=0;" edge="1" parent="60jKKPhYTKhftU9wOPC6-73" source="60jKKPhYTKhftU9wOPC6-52" target="60jKKPhYTKhftU9wOPC6-46">
          <mxGeometry width="50" height="50" relative="1" as="geometry">
            <mxPoint x="89.5" y="274" as="sourcePoint" />
            <mxPoint x="330.5" y="164" as="targetPoint" />
          </mxGeometry>
        </mxCell>
        <mxCell id="60jKKPhYTKhftU9wOPC6-67" value="" style="endArrow=classic;startArrow=classic;html=1;rounded=0;entryX=0.5;entryY=1;entryDx=0;entryDy=0;exitX=0.5;exitY=0;exitDx=0;exitDy=0;" edge="1" parent="60jKKPhYTKhftU9wOPC6-73" source="60jKKPhYTKhftU9wOPC6-52" target="60jKKPhYTKhftU9wOPC6-45">
          <mxGeometry width="50" height="50" relative="1" as="geometry">
            <mxPoint x="-149" y="274" as="sourcePoint" />
            <mxPoint x="92" y="164" as="targetPoint" />
          </mxGeometry>
        </mxCell>
        <mxCell id="60jKKPhYTKhftU9wOPC6-68" value="&lt;font style=&quot;font-size: 18px;&quot;&gt;工作内存&lt;/font&gt;" style="text;html=1;align=center;verticalAlign=middle;whiteSpace=wrap;rounded=0;" vertex="1" parent="60jKKPhYTKhftU9wOPC6-73">
          <mxGeometry x="48.75" y="71" width="82.5" height="30" as="geometry" />
        </mxCell>
        <mxCell id="60jKKPhYTKhftU9wOPC6-69" value="&lt;font style=&quot;font-size: 18px;&quot;&gt;工作内存&lt;/font&gt;" style="text;html=1;align=center;verticalAlign=middle;whiteSpace=wrap;rounded=0;" vertex="1" parent="60jKKPhYTKhftU9wOPC6-73">
          <mxGeometry x="288.75" y="71" width="82.5" height="30" as="geometry" />
        </mxCell>
        <mxCell id="60jKKPhYTKhftU9wOPC6-71" value="&lt;font style=&quot;font-size: 14px;&quot;&gt;共享变量副本&lt;/font&gt;" style="rounded=1;whiteSpace=wrap;html=1;fillColor=#f8cecc;strokeColor=#b85450;" vertex="1" parent="60jKKPhYTKhftU9wOPC6-73">
          <mxGeometry x="43.629999999999995" y="109" width="89.75" height="43" as="geometry" />
        </mxCell>
        <mxCell id="60jKKPhYTKhftU9wOPC6-72" value="&lt;font style=&quot;font-size: 14px;&quot;&gt;共享变量副本&lt;/font&gt;" style="rounded=1;whiteSpace=wrap;html=1;fillColor=#f8cecc;strokeColor=#b85450;" vertex="1" parent="60jKKPhYTKhftU9wOPC6-73">
          <mxGeometry x="285.13" y="109" width="89.75" height="43" as="geometry" />
        </mxCell>
        <mxCell id="60jKKPhYTKhftU9wOPC6-395" value="" style="group" vertex="1" connectable="0" parent="1">
          <mxGeometry x="97" y="1066" width="678" height="648" as="geometry" />
        </mxCell>
        <mxCell id="60jKKPhYTKhftU9wOPC6-127" value="" style="rounded=1;whiteSpace=wrap;html=1;fillColor=#fff2cc;strokeColor=#d6b656;" vertex="1" parent="60jKKPhYTKhftU9wOPC6-395">
          <mxGeometry y="26" width="678" height="622" as="geometry" />
        </mxCell>
        <mxCell id="60jKKPhYTKhftU9wOPC6-387" value="" style="rounded=1;whiteSpace=wrap;html=1;fillColor=#d5e8d4;strokeColor=#82b366;" vertex="1" parent="60jKKPhYTKhftU9wOPC6-395">
          <mxGeometry x="14" y="114" width="301" height="388" as="geometry" />
        </mxCell>
        <mxCell id="60jKKPhYTKhftU9wOPC6-128" value="&lt;font style=&quot;font-size: 48px;&quot;&gt;Heap&lt;/font&gt;" style="text;html=1;align=center;verticalAlign=middle;whiteSpace=wrap;rounded=0;" vertex="1" parent="60jKKPhYTKhftU9wOPC6-395">
          <mxGeometry x="193" width="285" height="147" as="geometry" />
        </mxCell>
        <mxCell id="60jKKPhYTKhftU9wOPC6-330" value="" style="group" vertex="1" connectable="0" parent="60jKKPhYTKhftU9wOPC6-395">
          <mxGeometry x="21" y="184" width="284" height="296" as="geometry" />
        </mxCell>
        <mxCell id="60jKKPhYTKhftU9wOPC6-129" value="" style="rounded=1;whiteSpace=wrap;html=1;fillColor=#ffe6cc;strokeColor=#d79b00;" vertex="1" parent="60jKKPhYTKhftU9wOPC6-330">
          <mxGeometry width="284" height="296" as="geometry" />
        </mxCell>
        <mxCell id="60jKKPhYTKhftU9wOPC6-130" value="&lt;font style=&quot;font-size: 24px;&quot;&gt;ThreadLocalMap&lt;/font&gt;" style="text;html=1;align=center;verticalAlign=middle;whiteSpace=wrap;rounded=0;" vertex="1" parent="60jKKPhYTKhftU9wOPC6-330">
          <mxGeometry x="112.5" y="16" width="60" height="30" as="geometry" />
        </mxCell>
        <mxCell id="60jKKPhYTKhftU9wOPC6-273" value="" style="group" vertex="1" connectable="0" parent="60jKKPhYTKhftU9wOPC6-330">
          <mxGeometry x="16" y="59" width="251.5" height="106" as="geometry" />
        </mxCell>
        <mxCell id="60jKKPhYTKhftU9wOPC6-167" value="" style="group" vertex="1" connectable="0" parent="60jKKPhYTKhftU9wOPC6-273">
          <mxGeometry width="251.5" height="53" as="geometry" />
        </mxCell>
        <mxCell id="60jKKPhYTKhftU9wOPC6-131" value="" style="rounded=0;whiteSpace=wrap;html=1;fillColor=#dae8fc;strokeColor=#6c8ebf;" vertex="1" parent="60jKKPhYTKhftU9wOPC6-167">
          <mxGeometry width="251.5" height="53" as="geometry" />
        </mxCell>
        <mxCell id="60jKKPhYTKhftU9wOPC6-152" value="" style="endArrow=none;html=1;rounded=0;entryX=0.25;entryY=0;entryDx=0;entryDy=0;exitX=0.25;exitY=1;exitDx=0;exitDy=0;" edge="1" parent="60jKKPhYTKhftU9wOPC6-167" source="60jKKPhYTKhftU9wOPC6-131" target="60jKKPhYTKhftU9wOPC6-131">
          <mxGeometry width="50" height="50" relative="1" as="geometry">
            <mxPoint x="266.5" y="216" as="sourcePoint" />
            <mxPoint x="316.5" y="166" as="targetPoint" />
          </mxGeometry>
        </mxCell>
        <mxCell id="60jKKPhYTKhftU9wOPC6-153" value="" style="endArrow=none;html=1;rounded=0;entryX=0.75;entryY=0;entryDx=0;entryDy=0;exitX=0.75;exitY=1;exitDx=0;exitDy=0;" edge="1" parent="60jKKPhYTKhftU9wOPC6-167" source="60jKKPhYTKhftU9wOPC6-131" target="60jKKPhYTKhftU9wOPC6-131">
          <mxGeometry width="50" height="50" relative="1" as="geometry">
            <mxPoint x="266.5" y="216" as="sourcePoint" />
            <mxPoint x="316.5" y="166" as="targetPoint" />
          </mxGeometry>
        </mxCell>
        <mxCell id="60jKKPhYTKhftU9wOPC6-156" value="" style="group" vertex="1" connectable="0" parent="60jKKPhYTKhftU9wOPC6-167">
          <mxGeometry x="2.5" y="11.5" width="249" height="30" as="geometry" />
        </mxCell>
        <mxCell id="60jKKPhYTKhftU9wOPC6-148" value="&lt;font style=&quot;font-size: 18px;&quot;&gt;Entry&lt;/font&gt;" style="text;html=1;align=center;verticalAlign=middle;whiteSpace=wrap;rounded=0;" vertex="1" parent="60jKKPhYTKhftU9wOPC6-156">
          <mxGeometry width="60" height="30" as="geometry" />
        </mxCell>
        <mxCell id="60jKKPhYTKhftU9wOPC6-154" value="&lt;font style=&quot;font-size: 18px;&quot;&gt;ThreadLocal&lt;/font&gt;" style="text;html=1;align=center;verticalAlign=middle;whiteSpace=wrap;rounded=0;" vertex="1" parent="60jKKPhYTKhftU9wOPC6-156">
          <mxGeometry x="94" width="60" height="30" as="geometry" />
        </mxCell>
        <mxCell id="60jKKPhYTKhftU9wOPC6-155" value="&lt;font style=&quot;font-size: 18px;&quot;&gt;value&lt;/font&gt;" style="text;html=1;align=center;verticalAlign=middle;whiteSpace=wrap;rounded=0;" vertex="1" parent="60jKKPhYTKhftU9wOPC6-156">
          <mxGeometry x="189" width="60" height="30" as="geometry" />
        </mxCell>
        <mxCell id="60jKKPhYTKhftU9wOPC6-168" value="" style="group" vertex="1" connectable="0" parent="60jKKPhYTKhftU9wOPC6-273">
          <mxGeometry y="53" width="251.5" height="53" as="geometry" />
        </mxCell>
        <mxCell id="60jKKPhYTKhftU9wOPC6-169" value="" style="rounded=0;whiteSpace=wrap;html=1;fillColor=#dae8fc;strokeColor=#6c8ebf;" vertex="1" parent="60jKKPhYTKhftU9wOPC6-168">
          <mxGeometry width="251.5" height="53" as="geometry" />
        </mxCell>
        <mxCell id="60jKKPhYTKhftU9wOPC6-170" value="" style="endArrow=none;html=1;rounded=0;entryX=0.25;entryY=0;entryDx=0;entryDy=0;exitX=0.25;exitY=1;exitDx=0;exitDy=0;" edge="1" parent="60jKKPhYTKhftU9wOPC6-168" source="60jKKPhYTKhftU9wOPC6-169" target="60jKKPhYTKhftU9wOPC6-169">
          <mxGeometry width="50" height="50" relative="1" as="geometry">
            <mxPoint x="266.5" y="216" as="sourcePoint" />
            <mxPoint x="316.5" y="166" as="targetPoint" />
          </mxGeometry>
        </mxCell>
        <mxCell id="60jKKPhYTKhftU9wOPC6-171" value="" style="endArrow=none;html=1;rounded=0;entryX=0.75;entryY=0;entryDx=0;entryDy=0;exitX=0.75;exitY=1;exitDx=0;exitDy=0;" edge="1" parent="60jKKPhYTKhftU9wOPC6-168" source="60jKKPhYTKhftU9wOPC6-169" target="60jKKPhYTKhftU9wOPC6-169">
          <mxGeometry width="50" height="50" relative="1" as="geometry">
            <mxPoint x="266.5" y="216" as="sourcePoint" />
            <mxPoint x="316.5" y="166" as="targetPoint" />
          </mxGeometry>
        </mxCell>
        <mxCell id="60jKKPhYTKhftU9wOPC6-172" value="" style="group" vertex="1" connectable="0" parent="60jKKPhYTKhftU9wOPC6-168">
          <mxGeometry x="2.5" y="11.5" width="249" height="30" as="geometry" />
        </mxCell>
        <mxCell id="60jKKPhYTKhftU9wOPC6-173" value="&lt;font style=&quot;font-size: 18px;&quot;&gt;Entry&lt;/font&gt;" style="text;html=1;align=center;verticalAlign=middle;whiteSpace=wrap;rounded=0;" vertex="1" parent="60jKKPhYTKhftU9wOPC6-172">
          <mxGeometry width="60" height="30" as="geometry" />
        </mxCell>
        <mxCell id="60jKKPhYTKhftU9wOPC6-174" value="&lt;font style=&quot;font-size: 18px;&quot;&gt;ThreadLocal&lt;/font&gt;" style="text;html=1;align=center;verticalAlign=middle;whiteSpace=wrap;rounded=0;" vertex="1" parent="60jKKPhYTKhftU9wOPC6-172">
          <mxGeometry x="94" width="60" height="30" as="geometry" />
        </mxCell>
        <mxCell id="60jKKPhYTKhftU9wOPC6-175" value="&lt;font style=&quot;font-size: 18px;&quot;&gt;value&lt;/font&gt;" style="text;html=1;align=center;verticalAlign=middle;whiteSpace=wrap;rounded=0;" vertex="1" parent="60jKKPhYTKhftU9wOPC6-172">
          <mxGeometry x="189" width="60" height="30" as="geometry" />
        </mxCell>
        <mxCell id="60jKKPhYTKhftU9wOPC6-274" value="" style="group" vertex="1" connectable="0" parent="60jKKPhYTKhftU9wOPC6-330">
          <mxGeometry x="16" y="165" width="251.5" height="106" as="geometry" />
        </mxCell>
        <mxCell id="60jKKPhYTKhftU9wOPC6-275" value="" style="group" vertex="1" connectable="0" parent="60jKKPhYTKhftU9wOPC6-274">
          <mxGeometry width="251.5" height="53" as="geometry" />
        </mxCell>
        <mxCell id="60jKKPhYTKhftU9wOPC6-276" value="" style="rounded=0;whiteSpace=wrap;html=1;fillColor=#dae8fc;strokeColor=#6c8ebf;" vertex="1" parent="60jKKPhYTKhftU9wOPC6-275">
          <mxGeometry width="251.5" height="53" as="geometry" />
        </mxCell>
        <mxCell id="60jKKPhYTKhftU9wOPC6-277" value="" style="endArrow=none;html=1;rounded=0;entryX=0.25;entryY=0;entryDx=0;entryDy=0;exitX=0.25;exitY=1;exitDx=0;exitDy=0;" edge="1" parent="60jKKPhYTKhftU9wOPC6-275" source="60jKKPhYTKhftU9wOPC6-276" target="60jKKPhYTKhftU9wOPC6-276">
          <mxGeometry width="50" height="50" relative="1" as="geometry">
            <mxPoint x="266.5" y="216" as="sourcePoint" />
            <mxPoint x="316.5" y="166" as="targetPoint" />
          </mxGeometry>
        </mxCell>
        <mxCell id="60jKKPhYTKhftU9wOPC6-278" value="" style="endArrow=none;html=1;rounded=0;entryX=0.75;entryY=0;entryDx=0;entryDy=0;exitX=0.75;exitY=1;exitDx=0;exitDy=0;" edge="1" parent="60jKKPhYTKhftU9wOPC6-275" source="60jKKPhYTKhftU9wOPC6-276" target="60jKKPhYTKhftU9wOPC6-276">
          <mxGeometry width="50" height="50" relative="1" as="geometry">
            <mxPoint x="266.5" y="216" as="sourcePoint" />
            <mxPoint x="316.5" y="166" as="targetPoint" />
          </mxGeometry>
        </mxCell>
        <mxCell id="60jKKPhYTKhftU9wOPC6-279" value="" style="group" vertex="1" connectable="0" parent="60jKKPhYTKhftU9wOPC6-275">
          <mxGeometry x="2.5" y="11.5" width="249" height="30" as="geometry" />
        </mxCell>
        <mxCell id="60jKKPhYTKhftU9wOPC6-280" value="&lt;font style=&quot;font-size: 18px;&quot;&gt;Entry&lt;/font&gt;" style="text;html=1;align=center;verticalAlign=middle;whiteSpace=wrap;rounded=0;" vertex="1" parent="60jKKPhYTKhftU9wOPC6-279">
          <mxGeometry width="60" height="30" as="geometry" />
        </mxCell>
        <mxCell id="60jKKPhYTKhftU9wOPC6-281" value="&lt;font style=&quot;font-size: 18px;&quot;&gt;ThreadLocal&lt;/font&gt;" style="text;html=1;align=center;verticalAlign=middle;whiteSpace=wrap;rounded=0;" vertex="1" parent="60jKKPhYTKhftU9wOPC6-279">
          <mxGeometry x="94" width="60" height="30" as="geometry" />
        </mxCell>
        <mxCell id="60jKKPhYTKhftU9wOPC6-282" value="&lt;font style=&quot;font-size: 18px;&quot;&gt;value&lt;/font&gt;" style="text;html=1;align=center;verticalAlign=middle;whiteSpace=wrap;rounded=0;" vertex="1" parent="60jKKPhYTKhftU9wOPC6-279">
          <mxGeometry x="189" width="60" height="30" as="geometry" />
        </mxCell>
        <mxCell id="60jKKPhYTKhftU9wOPC6-283" value="" style="group" vertex="1" connectable="0" parent="60jKKPhYTKhftU9wOPC6-274">
          <mxGeometry y="53" width="251.5" height="53" as="geometry" />
        </mxCell>
        <mxCell id="60jKKPhYTKhftU9wOPC6-284" value="" style="rounded=0;whiteSpace=wrap;html=1;fillColor=#dae8fc;strokeColor=#6c8ebf;" vertex="1" parent="60jKKPhYTKhftU9wOPC6-283">
          <mxGeometry width="251.5" height="53" as="geometry" />
        </mxCell>
        <mxCell id="60jKKPhYTKhftU9wOPC6-285" value="" style="endArrow=none;html=1;rounded=0;entryX=0.25;entryY=0;entryDx=0;entryDy=0;exitX=0.25;exitY=1;exitDx=0;exitDy=0;" edge="1" parent="60jKKPhYTKhftU9wOPC6-283" source="60jKKPhYTKhftU9wOPC6-284" target="60jKKPhYTKhftU9wOPC6-284">
          <mxGeometry width="50" height="50" relative="1" as="geometry">
            <mxPoint x="266.5" y="216" as="sourcePoint" />
            <mxPoint x="316.5" y="166" as="targetPoint" />
          </mxGeometry>
        </mxCell>
        <mxCell id="60jKKPhYTKhftU9wOPC6-286" value="" style="endArrow=none;html=1;rounded=0;entryX=0.75;entryY=0;entryDx=0;entryDy=0;exitX=0.75;exitY=1;exitDx=0;exitDy=0;" edge="1" parent="60jKKPhYTKhftU9wOPC6-283" source="60jKKPhYTKhftU9wOPC6-284" target="60jKKPhYTKhftU9wOPC6-284">
          <mxGeometry width="50" height="50" relative="1" as="geometry">
            <mxPoint x="266.5" y="216" as="sourcePoint" />
            <mxPoint x="316.5" y="166" as="targetPoint" />
          </mxGeometry>
        </mxCell>
        <mxCell id="60jKKPhYTKhftU9wOPC6-287" value="" style="group" vertex="1" connectable="0" parent="60jKKPhYTKhftU9wOPC6-283">
          <mxGeometry x="2.5" y="11.5" width="249" height="30" as="geometry" />
        </mxCell>
        <mxCell id="60jKKPhYTKhftU9wOPC6-288" value="&lt;font style=&quot;font-size: 18px;&quot;&gt;Entry&lt;/font&gt;" style="text;html=1;align=center;verticalAlign=middle;whiteSpace=wrap;rounded=0;" vertex="1" parent="60jKKPhYTKhftU9wOPC6-287">
          <mxGeometry width="60" height="30" as="geometry" />
        </mxCell>
        <mxCell id="60jKKPhYTKhftU9wOPC6-289" value="&lt;font style=&quot;font-size: 18px;&quot;&gt;ThreadLocal&lt;/font&gt;" style="text;html=1;align=center;verticalAlign=middle;whiteSpace=wrap;rounded=0;" vertex="1" parent="60jKKPhYTKhftU9wOPC6-287">
          <mxGeometry x="94" width="60" height="30" as="geometry" />
        </mxCell>
        <mxCell id="60jKKPhYTKhftU9wOPC6-290" value="&lt;font style=&quot;font-size: 18px;&quot;&gt;value&lt;/font&gt;" style="text;html=1;align=center;verticalAlign=middle;whiteSpace=wrap;rounded=0;" vertex="1" parent="60jKKPhYTKhftU9wOPC6-287">
          <mxGeometry x="189" width="60" height="30" as="geometry" />
        </mxCell>
        <mxCell id="60jKKPhYTKhftU9wOPC6-391" value="" style="rounded=1;whiteSpace=wrap;html=1;fillColor=#d5e8d4;strokeColor=#82b366;" vertex="1" parent="60jKKPhYTKhftU9wOPC6-395">
          <mxGeometry x="364" y="114" width="301" height="388" as="geometry" />
        </mxCell>
        <mxCell id="60jKKPhYTKhftU9wOPC6-332" value="" style="group" vertex="1" connectable="0" parent="60jKKPhYTKhftU9wOPC6-395">
          <mxGeometry x="373" y="184" width="284" height="296" as="geometry" />
        </mxCell>
        <mxCell id="60jKKPhYTKhftU9wOPC6-333" value="" style="rounded=1;whiteSpace=wrap;html=1;fillColor=#ffe6cc;strokeColor=#d79b00;" vertex="1" parent="60jKKPhYTKhftU9wOPC6-332">
          <mxGeometry width="284" height="296" as="geometry" />
        </mxCell>
        <mxCell id="60jKKPhYTKhftU9wOPC6-334" value="&lt;font style=&quot;font-size: 24px;&quot;&gt;ThreadLocalMap&lt;/font&gt;" style="text;html=1;align=center;verticalAlign=middle;whiteSpace=wrap;rounded=0;" vertex="1" parent="60jKKPhYTKhftU9wOPC6-332">
          <mxGeometry x="112.5" y="16" width="60" height="30" as="geometry" />
        </mxCell>
        <mxCell id="60jKKPhYTKhftU9wOPC6-335" value="" style="group" vertex="1" connectable="0" parent="60jKKPhYTKhftU9wOPC6-332">
          <mxGeometry x="16" y="59" width="251.5" height="106" as="geometry" />
        </mxCell>
        <mxCell id="60jKKPhYTKhftU9wOPC6-336" value="" style="group" vertex="1" connectable="0" parent="60jKKPhYTKhftU9wOPC6-335">
          <mxGeometry width="251.5" height="53" as="geometry" />
        </mxCell>
        <mxCell id="60jKKPhYTKhftU9wOPC6-337" value="" style="rounded=0;whiteSpace=wrap;html=1;fillColor=#dae8fc;strokeColor=#6c8ebf;" vertex="1" parent="60jKKPhYTKhftU9wOPC6-336">
          <mxGeometry width="251.5" height="53" as="geometry" />
        </mxCell>
        <mxCell id="60jKKPhYTKhftU9wOPC6-338" value="" style="endArrow=none;html=1;rounded=0;entryX=0.25;entryY=0;entryDx=0;entryDy=0;exitX=0.25;exitY=1;exitDx=0;exitDy=0;" edge="1" parent="60jKKPhYTKhftU9wOPC6-336" source="60jKKPhYTKhftU9wOPC6-337" target="60jKKPhYTKhftU9wOPC6-337">
          <mxGeometry width="50" height="50" relative="1" as="geometry">
            <mxPoint x="266.5" y="216" as="sourcePoint" />
            <mxPoint x="316.5" y="166" as="targetPoint" />
          </mxGeometry>
        </mxCell>
        <mxCell id="60jKKPhYTKhftU9wOPC6-339" value="" style="endArrow=none;html=1;rounded=0;entryX=0.75;entryY=0;entryDx=0;entryDy=0;exitX=0.75;exitY=1;exitDx=0;exitDy=0;" edge="1" parent="60jKKPhYTKhftU9wOPC6-336" source="60jKKPhYTKhftU9wOPC6-337" target="60jKKPhYTKhftU9wOPC6-337">
          <mxGeometry width="50" height="50" relative="1" as="geometry">
            <mxPoint x="266.5" y="216" as="sourcePoint" />
            <mxPoint x="316.5" y="166" as="targetPoint" />
          </mxGeometry>
        </mxCell>
        <mxCell id="60jKKPhYTKhftU9wOPC6-340" value="" style="group" vertex="1" connectable="0" parent="60jKKPhYTKhftU9wOPC6-336">
          <mxGeometry x="2.5" y="11.5" width="249" height="30" as="geometry" />
        </mxCell>
        <mxCell id="60jKKPhYTKhftU9wOPC6-341" value="&lt;font style=&quot;font-size: 18px;&quot;&gt;Entry&lt;/font&gt;" style="text;html=1;align=center;verticalAlign=middle;whiteSpace=wrap;rounded=0;" vertex="1" parent="60jKKPhYTKhftU9wOPC6-340">
          <mxGeometry width="60" height="30" as="geometry" />
        </mxCell>
        <mxCell id="60jKKPhYTKhftU9wOPC6-342" value="&lt;font style=&quot;font-size: 18px;&quot;&gt;ThreadLocal&lt;/font&gt;" style="text;html=1;align=center;verticalAlign=middle;whiteSpace=wrap;rounded=0;" vertex="1" parent="60jKKPhYTKhftU9wOPC6-340">
          <mxGeometry x="94" width="60" height="30" as="geometry" />
        </mxCell>
        <mxCell id="60jKKPhYTKhftU9wOPC6-343" value="&lt;font style=&quot;font-size: 18px;&quot;&gt;value&lt;/font&gt;" style="text;html=1;align=center;verticalAlign=middle;whiteSpace=wrap;rounded=0;" vertex="1" parent="60jKKPhYTKhftU9wOPC6-340">
          <mxGeometry x="189" width="60" height="30" as="geometry" />
        </mxCell>
        <mxCell id="60jKKPhYTKhftU9wOPC6-344" value="" style="group" vertex="1" connectable="0" parent="60jKKPhYTKhftU9wOPC6-335">
          <mxGeometry y="53" width="251.5" height="53" as="geometry" />
        </mxCell>
        <mxCell id="60jKKPhYTKhftU9wOPC6-345" value="" style="rounded=0;whiteSpace=wrap;html=1;fillColor=#dae8fc;strokeColor=#6c8ebf;" vertex="1" parent="60jKKPhYTKhftU9wOPC6-344">
          <mxGeometry width="251.5" height="53" as="geometry" />
        </mxCell>
        <mxCell id="60jKKPhYTKhftU9wOPC6-346" value="" style="endArrow=none;html=1;rounded=0;entryX=0.25;entryY=0;entryDx=0;entryDy=0;exitX=0.25;exitY=1;exitDx=0;exitDy=0;" edge="1" parent="60jKKPhYTKhftU9wOPC6-344" source="60jKKPhYTKhftU9wOPC6-345" target="60jKKPhYTKhftU9wOPC6-345">
          <mxGeometry width="50" height="50" relative="1" as="geometry">
            <mxPoint x="266.5" y="216" as="sourcePoint" />
            <mxPoint x="316.5" y="166" as="targetPoint" />
          </mxGeometry>
        </mxCell>
        <mxCell id="60jKKPhYTKhftU9wOPC6-347" value="" style="endArrow=none;html=1;rounded=0;entryX=0.75;entryY=0;entryDx=0;entryDy=0;exitX=0.75;exitY=1;exitDx=0;exitDy=0;" edge="1" parent="60jKKPhYTKhftU9wOPC6-344" source="60jKKPhYTKhftU9wOPC6-345" target="60jKKPhYTKhftU9wOPC6-345">
          <mxGeometry width="50" height="50" relative="1" as="geometry">
            <mxPoint x="266.5" y="216" as="sourcePoint" />
            <mxPoint x="316.5" y="166" as="targetPoint" />
          </mxGeometry>
        </mxCell>
        <mxCell id="60jKKPhYTKhftU9wOPC6-348" value="" style="group" vertex="1" connectable="0" parent="60jKKPhYTKhftU9wOPC6-344">
          <mxGeometry x="2.5" y="11.5" width="249" height="30" as="geometry" />
        </mxCell>
        <mxCell id="60jKKPhYTKhftU9wOPC6-349" value="&lt;font style=&quot;font-size: 18px;&quot;&gt;Entry&lt;/font&gt;" style="text;html=1;align=center;verticalAlign=middle;whiteSpace=wrap;rounded=0;" vertex="1" parent="60jKKPhYTKhftU9wOPC6-348">
          <mxGeometry width="60" height="30" as="geometry" />
        </mxCell>
        <mxCell id="60jKKPhYTKhftU9wOPC6-350" value="&lt;font style=&quot;font-size: 18px;&quot;&gt;ThreadLocal&lt;/font&gt;" style="text;html=1;align=center;verticalAlign=middle;whiteSpace=wrap;rounded=0;" vertex="1" parent="60jKKPhYTKhftU9wOPC6-348">
          <mxGeometry x="94" width="60" height="30" as="geometry" />
        </mxCell>
        <mxCell id="60jKKPhYTKhftU9wOPC6-351" value="&lt;font style=&quot;font-size: 18px;&quot;&gt;value&lt;/font&gt;" style="text;html=1;align=center;verticalAlign=middle;whiteSpace=wrap;rounded=0;" vertex="1" parent="60jKKPhYTKhftU9wOPC6-348">
          <mxGeometry x="189" width="60" height="30" as="geometry" />
        </mxCell>
        <mxCell id="60jKKPhYTKhftU9wOPC6-352" value="" style="group" vertex="1" connectable="0" parent="60jKKPhYTKhftU9wOPC6-332">
          <mxGeometry x="16" y="165" width="251.5" height="106" as="geometry" />
        </mxCell>
        <mxCell id="60jKKPhYTKhftU9wOPC6-353" value="" style="group" vertex="1" connectable="0" parent="60jKKPhYTKhftU9wOPC6-352">
          <mxGeometry width="251.5" height="53" as="geometry" />
        </mxCell>
        <mxCell id="60jKKPhYTKhftU9wOPC6-354" value="" style="rounded=0;whiteSpace=wrap;html=1;fillColor=#dae8fc;strokeColor=#6c8ebf;" vertex="1" parent="60jKKPhYTKhftU9wOPC6-353">
          <mxGeometry width="251.5" height="53" as="geometry" />
        </mxCell>
        <mxCell id="60jKKPhYTKhftU9wOPC6-355" value="" style="endArrow=none;html=1;rounded=0;entryX=0.25;entryY=0;entryDx=0;entryDy=0;exitX=0.25;exitY=1;exitDx=0;exitDy=0;" edge="1" parent="60jKKPhYTKhftU9wOPC6-353" source="60jKKPhYTKhftU9wOPC6-354" target="60jKKPhYTKhftU9wOPC6-354">
          <mxGeometry width="50" height="50" relative="1" as="geometry">
            <mxPoint x="266.5" y="216" as="sourcePoint" />
            <mxPoint x="316.5" y="166" as="targetPoint" />
          </mxGeometry>
        </mxCell>
        <mxCell id="60jKKPhYTKhftU9wOPC6-356" value="" style="endArrow=none;html=1;rounded=0;entryX=0.75;entryY=0;entryDx=0;entryDy=0;exitX=0.75;exitY=1;exitDx=0;exitDy=0;" edge="1" parent="60jKKPhYTKhftU9wOPC6-353" source="60jKKPhYTKhftU9wOPC6-354" target="60jKKPhYTKhftU9wOPC6-354">
          <mxGeometry width="50" height="50" relative="1" as="geometry">
            <mxPoint x="266.5" y="216" as="sourcePoint" />
            <mxPoint x="316.5" y="166" as="targetPoint" />
          </mxGeometry>
        </mxCell>
        <mxCell id="60jKKPhYTKhftU9wOPC6-357" value="" style="group" vertex="1" connectable="0" parent="60jKKPhYTKhftU9wOPC6-353">
          <mxGeometry x="2.5" y="11.5" width="249" height="30" as="geometry" />
        </mxCell>
        <mxCell id="60jKKPhYTKhftU9wOPC6-358" value="&lt;font style=&quot;font-size: 18px;&quot;&gt;Entry&lt;/font&gt;" style="text;html=1;align=center;verticalAlign=middle;whiteSpace=wrap;rounded=0;" vertex="1" parent="60jKKPhYTKhftU9wOPC6-357">
          <mxGeometry width="60" height="30" as="geometry" />
        </mxCell>
        <mxCell id="60jKKPhYTKhftU9wOPC6-359" value="&lt;font style=&quot;font-size: 18px;&quot;&gt;ThreadLocal&lt;/font&gt;" style="text;html=1;align=center;verticalAlign=middle;whiteSpace=wrap;rounded=0;" vertex="1" parent="60jKKPhYTKhftU9wOPC6-357">
          <mxGeometry x="94" width="60" height="30" as="geometry" />
        </mxCell>
        <mxCell id="60jKKPhYTKhftU9wOPC6-360" value="&lt;font style=&quot;font-size: 18px;&quot;&gt;value&lt;/font&gt;" style="text;html=1;align=center;verticalAlign=middle;whiteSpace=wrap;rounded=0;" vertex="1" parent="60jKKPhYTKhftU9wOPC6-357">
          <mxGeometry x="189" width="60" height="30" as="geometry" />
        </mxCell>
        <mxCell id="60jKKPhYTKhftU9wOPC6-361" value="" style="group" vertex="1" connectable="0" parent="60jKKPhYTKhftU9wOPC6-352">
          <mxGeometry y="53" width="251.5" height="53" as="geometry" />
        </mxCell>
        <mxCell id="60jKKPhYTKhftU9wOPC6-362" value="" style="rounded=0;whiteSpace=wrap;html=1;fillColor=#dae8fc;strokeColor=#6c8ebf;" vertex="1" parent="60jKKPhYTKhftU9wOPC6-361">
          <mxGeometry width="251.5" height="53" as="geometry" />
        </mxCell>
        <mxCell id="60jKKPhYTKhftU9wOPC6-363" value="" style="endArrow=none;html=1;rounded=0;entryX=0.25;entryY=0;entryDx=0;entryDy=0;exitX=0.25;exitY=1;exitDx=0;exitDy=0;" edge="1" parent="60jKKPhYTKhftU9wOPC6-361" source="60jKKPhYTKhftU9wOPC6-362" target="60jKKPhYTKhftU9wOPC6-362">
          <mxGeometry width="50" height="50" relative="1" as="geometry">
            <mxPoint x="266.5" y="216" as="sourcePoint" />
            <mxPoint x="316.5" y="166" as="targetPoint" />
          </mxGeometry>
        </mxCell>
        <mxCell id="60jKKPhYTKhftU9wOPC6-364" value="" style="endArrow=none;html=1;rounded=0;entryX=0.75;entryY=0;entryDx=0;entryDy=0;exitX=0.75;exitY=1;exitDx=0;exitDy=0;" edge="1" parent="60jKKPhYTKhftU9wOPC6-361" source="60jKKPhYTKhftU9wOPC6-362" target="60jKKPhYTKhftU9wOPC6-362">
          <mxGeometry width="50" height="50" relative="1" as="geometry">
            <mxPoint x="266.5" y="216" as="sourcePoint" />
            <mxPoint x="316.5" y="166" as="targetPoint" />
          </mxGeometry>
        </mxCell>
        <mxCell id="60jKKPhYTKhftU9wOPC6-365" value="" style="group" vertex="1" connectable="0" parent="60jKKPhYTKhftU9wOPC6-361">
          <mxGeometry x="2.5" y="11.5" width="249" height="30" as="geometry" />
        </mxCell>
        <mxCell id="60jKKPhYTKhftU9wOPC6-366" value="&lt;font style=&quot;font-size: 18px;&quot;&gt;Entry&lt;/font&gt;" style="text;html=1;align=center;verticalAlign=middle;whiteSpace=wrap;rounded=0;" vertex="1" parent="60jKKPhYTKhftU9wOPC6-365">
          <mxGeometry width="60" height="30" as="geometry" />
        </mxCell>
        <mxCell id="60jKKPhYTKhftU9wOPC6-367" value="&lt;font style=&quot;font-size: 18px;&quot;&gt;ThreadLocal&lt;/font&gt;" style="text;html=1;align=center;verticalAlign=middle;whiteSpace=wrap;rounded=0;" vertex="1" parent="60jKKPhYTKhftU9wOPC6-365">
          <mxGeometry x="94" width="60" height="30" as="geometry" />
        </mxCell>
        <mxCell id="60jKKPhYTKhftU9wOPC6-368" value="&lt;font style=&quot;font-size: 18px;&quot;&gt;value&lt;/font&gt;" style="text;html=1;align=center;verticalAlign=middle;whiteSpace=wrap;rounded=0;" vertex="1" parent="60jKKPhYTKhftU9wOPC6-365">
          <mxGeometry x="189" width="60" height="30" as="geometry" />
        </mxCell>
        <mxCell id="60jKKPhYTKhftU9wOPC6-370" value="&lt;font style=&quot;font-size: 18px;&quot;&gt;ThreadLocal&lt;/font&gt;" style="rounded=1;whiteSpace=wrap;html=1;fillColor=#f8cecc;strokeColor=#b85450;" vertex="1" parent="60jKKPhYTKhftU9wOPC6-395">
          <mxGeometry x="29" y="533.5" width="123" height="58" as="geometry" />
        </mxCell>
        <mxCell id="60jKKPhYTKhftU9wOPC6-378" style="edgeStyle=orthogonalEdgeStyle;rounded=0;orthogonalLoop=1;jettySize=auto;html=1;exitX=0;exitY=0.75;exitDx=0;exitDy=0;entryX=0;entryY=0.5;entryDx=0;entryDy=0;" edge="1" parent="60jKKPhYTKhftU9wOPC6-395" source="60jKKPhYTKhftU9wOPC6-148" target="60jKKPhYTKhftU9wOPC6-370">
          <mxGeometry relative="1" as="geometry">
            <Array as="points">
              <mxPoint x="8" y="277" />
              <mxPoint x="8" y="563" />
            </Array>
          </mxGeometry>
        </mxCell>
        <mxCell id="60jKKPhYTKhftU9wOPC6-380" style="edgeStyle=orthogonalEdgeStyle;rounded=0;orthogonalLoop=1;jettySize=auto;html=1;exitX=0;exitY=0.5;exitDx=0;exitDy=0;entryX=0.5;entryY=0;entryDx=0;entryDy=0;" edge="1" parent="60jKKPhYTKhftU9wOPC6-395" source="60jKKPhYTKhftU9wOPC6-288" target="60jKKPhYTKhftU9wOPC6-382">
          <mxGeometry relative="1" as="geometry">
            <mxPoint x="289.5" y="523" as="targetPoint" />
            <Array as="points">
              <mxPoint x="19" y="429" />
              <mxPoint x="19" y="492" />
              <mxPoint x="260" y="492" />
            </Array>
          </mxGeometry>
        </mxCell>
        <mxCell id="60jKKPhYTKhftU9wOPC6-382" value="&lt;font style=&quot;font-size: 18px;&quot;&gt;ThreadLocal&lt;/font&gt;" style="rounded=1;whiteSpace=wrap;html=1;fillColor=#f8cecc;strokeColor=#b85450;" vertex="1" parent="60jKKPhYTKhftU9wOPC6-395">
          <mxGeometry x="198" y="533.5" width="123" height="58" as="geometry" />
        </mxCell>
        <mxCell id="60jKKPhYTKhftU9wOPC6-383" value="&lt;font style=&quot;font-size: 18px;&quot;&gt;ThreadLocal&lt;/font&gt;" style="rounded=1;whiteSpace=wrap;html=1;fillColor=#f8cecc;strokeColor=#b85450;" vertex="1" parent="60jKKPhYTKhftU9wOPC6-395">
          <mxGeometry x="375" y="533.5" width="123" height="58" as="geometry" />
        </mxCell>
        <mxCell id="60jKKPhYTKhftU9wOPC6-384" value="&lt;font style=&quot;font-size: 18px;&quot;&gt;ThreadLocal&lt;/font&gt;" style="rounded=1;whiteSpace=wrap;html=1;fillColor=#f8cecc;strokeColor=#b85450;" vertex="1" parent="60jKKPhYTKhftU9wOPC6-395">
          <mxGeometry x="543" y="533.5" width="123" height="58" as="geometry" />
        </mxCell>
        <mxCell id="60jKKPhYTKhftU9wOPC6-385" style="edgeStyle=orthogonalEdgeStyle;rounded=0;orthogonalLoop=1;jettySize=auto;html=1;exitX=0;exitY=0.5;exitDx=0;exitDy=0;entryX=0.5;entryY=0;entryDx=0;entryDy=0;" edge="1" parent="60jKKPhYTKhftU9wOPC6-395" source="60jKKPhYTKhftU9wOPC6-358" target="60jKKPhYTKhftU9wOPC6-384">
          <mxGeometry relative="1" as="geometry">
            <Array as="points">
              <mxPoint x="381" y="375" />
              <mxPoint x="381" y="495" />
              <mxPoint x="605" y="495" />
            </Array>
          </mxGeometry>
        </mxCell>
        <mxCell id="60jKKPhYTKhftU9wOPC6-386" style="edgeStyle=orthogonalEdgeStyle;rounded=0;orthogonalLoop=1;jettySize=auto;html=1;exitX=0;exitY=0.75;exitDx=0;exitDy=0;entryX=0.5;entryY=0;entryDx=0;entryDy=0;" edge="1" parent="60jKKPhYTKhftU9wOPC6-395" source="60jKKPhYTKhftU9wOPC6-341" target="60jKKPhYTKhftU9wOPC6-383">
          <mxGeometry relative="1" as="geometry">
            <Array as="points">
              <mxPoint x="345" y="277" />
              <mxPoint x="345" y="517" />
              <mxPoint x="437" y="517" />
            </Array>
          </mxGeometry>
        </mxCell>
        <mxCell id="60jKKPhYTKhftU9wOPC6-389" value="&lt;font style=&quot;font-size: 36px;&quot;&gt;Thread&lt;/font&gt;" style="text;html=1;align=center;verticalAlign=middle;whiteSpace=wrap;rounded=0;" vertex="1" parent="60jKKPhYTKhftU9wOPC6-395">
          <mxGeometry x="130" y="137" width="60" height="30" as="geometry" />
        </mxCell>
        <mxCell id="60jKKPhYTKhftU9wOPC6-392" value="&lt;font style=&quot;font-size: 36px;&quot;&gt;Thread&lt;/font&gt;" style="text;html=1;align=center;verticalAlign=middle;whiteSpace=wrap;rounded=0;" vertex="1" parent="60jKKPhYTKhftU9wOPC6-395">
          <mxGeometry x="479" y="137" width="60" height="30" as="geometry" />
        </mxCell>
        <mxCell id="60jKKPhYTKhftU9wOPC6-403" value="" style="group" vertex="1" connectable="0" parent="1">
          <mxGeometry x="102" y="2080" width="200" height="200" as="geometry" />
        </mxCell>
        <mxCell id="60jKKPhYTKhftU9wOPC6-393" value="" style="whiteSpace=wrap;html=1;aspect=fixed;rounded=1;strokeColor=#d79b00;align=center;verticalAlign=middle;fontFamily=Helvetica;fontSize=12;fillColor=#ffe6cc;" vertex="1" parent="60jKKPhYTKhftU9wOPC6-403">
          <mxGeometry width="200" height="200" as="geometry" />
        </mxCell>
        <mxCell id="60jKKPhYTKhftU9wOPC6-394" value="&lt;font style=&quot;font-size: 24px;&quot;&gt;Node&lt;/font&gt;" style="text;html=1;align=center;verticalAlign=middle;whiteSpace=wrap;rounded=0;fontFamily=Helvetica;fontSize=12;fontColor=default;" vertex="1" parent="60jKKPhYTKhftU9wOPC6-403">
          <mxGeometry x="70" y="9" width="60" height="30" as="geometry" />
        </mxCell>
        <mxCell id="60jKKPhYTKhftU9wOPC6-396" value="&lt;font style=&quot;font-size: 18px;&quot;&gt;waitStatus&lt;/font&gt;" style="rounded=0;whiteSpace=wrap;html=1;strokeColor=#6c8ebf;align=center;verticalAlign=middle;fontFamily=Helvetica;fontSize=12;fillColor=#dae8fc;" vertex="1" parent="60jKKPhYTKhftU9wOPC6-403">
          <mxGeometry x="24" y="49" width="152" height="28" as="geometry" />
        </mxCell>
        <mxCell id="60jKKPhYTKhftU9wOPC6-397" value="&lt;font style=&quot;font-size: 18px;&quot;&gt;nextWaiter&lt;/font&gt;" style="rounded=0;whiteSpace=wrap;html=1;strokeColor=#6c8ebf;align=center;verticalAlign=middle;fontFamily=Helvetica;fontSize=12;fillColor=#dae8fc;" vertex="1" parent="60jKKPhYTKhftU9wOPC6-403">
          <mxGeometry x="24" y="86" width="152" height="28" as="geometry" />
        </mxCell>
        <mxCell id="60jKKPhYTKhftU9wOPC6-398" value="&lt;font style=&quot;font-size: 18px;&quot;&gt;thread&lt;/font&gt;" style="rounded=0;whiteSpace=wrap;html=1;strokeColor=#6c8ebf;align=center;verticalAlign=middle;fontFamily=Helvetica;fontSize=12;fillColor=#dae8fc;" vertex="1" parent="60jKKPhYTKhftU9wOPC6-403">
          <mxGeometry x="24" y="123" width="152" height="28" as="geometry" />
        </mxCell>
        <mxCell id="60jKKPhYTKhftU9wOPC6-399" value="&lt;font style=&quot;font-size: 18px;&quot;&gt;prev&lt;/font&gt;" style="rounded=0;whiteSpace=wrap;html=1;strokeColor=#9673a6;align=center;verticalAlign=middle;fontFamily=Helvetica;fontSize=12;fillColor=#e1d5e7;" vertex="1" parent="60jKKPhYTKhftU9wOPC6-403">
          <mxGeometry x="24" y="162" width="73" height="26" as="geometry" />
        </mxCell>
        <mxCell id="60jKKPhYTKhftU9wOPC6-401" value="&lt;font style=&quot;font-size: 18px;&quot;&gt;next&lt;/font&gt;" style="rounded=0;whiteSpace=wrap;html=1;strokeColor=#9673a6;align=center;verticalAlign=middle;fontFamily=Helvetica;fontSize=12;fillColor=#e1d5e7;" vertex="1" parent="60jKKPhYTKhftU9wOPC6-403">
          <mxGeometry x="103" y="162" width="73" height="26" as="geometry" />
        </mxCell>
        <mxCell id="60jKKPhYTKhftU9wOPC6-404" value="" style="group" vertex="1" connectable="0" parent="1">
          <mxGeometry x="336" y="2080" width="200" height="200" as="geometry" />
        </mxCell>
        <mxCell id="60jKKPhYTKhftU9wOPC6-405" value="" style="whiteSpace=wrap;html=1;aspect=fixed;rounded=1;strokeColor=#d79b00;align=center;verticalAlign=middle;fontFamily=Helvetica;fontSize=12;fillColor=#ffe6cc;" vertex="1" parent="60jKKPhYTKhftU9wOPC6-404">
          <mxGeometry width="200" height="200" as="geometry" />
        </mxCell>
        <mxCell id="60jKKPhYTKhftU9wOPC6-406" value="&lt;font style=&quot;font-size: 24px;&quot;&gt;Node&lt;/font&gt;" style="text;html=1;align=center;verticalAlign=middle;whiteSpace=wrap;rounded=0;fontFamily=Helvetica;fontSize=12;fontColor=default;" vertex="1" parent="60jKKPhYTKhftU9wOPC6-404">
          <mxGeometry x="70" y="9" width="60" height="30" as="geometry" />
        </mxCell>
        <mxCell id="60jKKPhYTKhftU9wOPC6-407" value="&lt;font style=&quot;font-size: 18px;&quot;&gt;waitStatus&lt;/font&gt;" style="rounded=0;whiteSpace=wrap;html=1;strokeColor=#6c8ebf;align=center;verticalAlign=middle;fontFamily=Helvetica;fontSize=12;fillColor=#dae8fc;" vertex="1" parent="60jKKPhYTKhftU9wOPC6-404">
          <mxGeometry x="24" y="49" width="152" height="28" as="geometry" />
        </mxCell>
        <mxCell id="60jKKPhYTKhftU9wOPC6-408" value="&lt;font style=&quot;font-size: 18px;&quot;&gt;nextWaiter&lt;/font&gt;" style="rounded=0;whiteSpace=wrap;html=1;strokeColor=#6c8ebf;align=center;verticalAlign=middle;fontFamily=Helvetica;fontSize=12;fillColor=#dae8fc;" vertex="1" parent="60jKKPhYTKhftU9wOPC6-404">
          <mxGeometry x="24" y="86" width="152" height="28" as="geometry" />
        </mxCell>
        <mxCell id="60jKKPhYTKhftU9wOPC6-409" value="&lt;font style=&quot;font-size: 18px;&quot;&gt;thread&lt;/font&gt;" style="rounded=0;whiteSpace=wrap;html=1;strokeColor=#6c8ebf;align=center;verticalAlign=middle;fontFamily=Helvetica;fontSize=12;fillColor=#dae8fc;" vertex="1" parent="60jKKPhYTKhftU9wOPC6-404">
          <mxGeometry x="24" y="123" width="152" height="28" as="geometry" />
        </mxCell>
        <mxCell id="60jKKPhYTKhftU9wOPC6-410" value="&lt;font style=&quot;font-size: 18px;&quot;&gt;prev&lt;/font&gt;" style="rounded=0;whiteSpace=wrap;html=1;strokeColor=#9673a6;align=center;verticalAlign=middle;fontFamily=Helvetica;fontSize=12;fillColor=#e1d5e7;" vertex="1" parent="60jKKPhYTKhftU9wOPC6-404">
          <mxGeometry x="24" y="162" width="73" height="26" as="geometry" />
        </mxCell>
        <mxCell id="60jKKPhYTKhftU9wOPC6-411" value="&lt;font style=&quot;font-size: 18px;&quot;&gt;next&lt;/font&gt;" style="rounded=0;whiteSpace=wrap;html=1;strokeColor=#9673a6;align=center;verticalAlign=middle;fontFamily=Helvetica;fontSize=12;fillColor=#e1d5e7;" vertex="1" parent="60jKKPhYTKhftU9wOPC6-404">
          <mxGeometry x="103" y="162" width="73" height="26" as="geometry" />
        </mxCell>
        <mxCell id="60jKKPhYTKhftU9wOPC6-413" value="" style="group" vertex="1" connectable="0" parent="1">
          <mxGeometry x="570" y="2080" width="200" height="200" as="geometry" />
        </mxCell>
        <mxCell id="60jKKPhYTKhftU9wOPC6-414" value="" style="whiteSpace=wrap;html=1;aspect=fixed;rounded=1;strokeColor=#d79b00;align=center;verticalAlign=middle;fontFamily=Helvetica;fontSize=12;fillColor=#ffe6cc;" vertex="1" parent="60jKKPhYTKhftU9wOPC6-413">
          <mxGeometry width="200" height="200" as="geometry" />
        </mxCell>
        <mxCell id="60jKKPhYTKhftU9wOPC6-415" value="&lt;font style=&quot;font-size: 24px;&quot;&gt;Node&lt;/font&gt;" style="text;html=1;align=center;verticalAlign=middle;whiteSpace=wrap;rounded=0;fontFamily=Helvetica;fontSize=12;fontColor=default;" vertex="1" parent="60jKKPhYTKhftU9wOPC6-413">
          <mxGeometry x="70" y="9" width="60" height="30" as="geometry" />
        </mxCell>
        <mxCell id="60jKKPhYTKhftU9wOPC6-416" value="&lt;font style=&quot;font-size: 18px;&quot;&gt;waitStatus&lt;/font&gt;" style="rounded=0;whiteSpace=wrap;html=1;strokeColor=#6c8ebf;align=center;verticalAlign=middle;fontFamily=Helvetica;fontSize=12;fillColor=#dae8fc;" vertex="1" parent="60jKKPhYTKhftU9wOPC6-413">
          <mxGeometry x="24" y="49" width="152" height="28" as="geometry" />
        </mxCell>
        <mxCell id="60jKKPhYTKhftU9wOPC6-417" value="&lt;font style=&quot;font-size: 18px;&quot;&gt;nextWaiter&lt;/font&gt;" style="rounded=0;whiteSpace=wrap;html=1;strokeColor=#6c8ebf;align=center;verticalAlign=middle;fontFamily=Helvetica;fontSize=12;fillColor=#dae8fc;" vertex="1" parent="60jKKPhYTKhftU9wOPC6-413">
          <mxGeometry x="24" y="86" width="152" height="28" as="geometry" />
        </mxCell>
        <mxCell id="60jKKPhYTKhftU9wOPC6-418" value="&lt;font style=&quot;font-size: 18px;&quot;&gt;thread&lt;/font&gt;" style="rounded=0;whiteSpace=wrap;html=1;strokeColor=#6c8ebf;align=center;verticalAlign=middle;fontFamily=Helvetica;fontSize=12;fillColor=#dae8fc;" vertex="1" parent="60jKKPhYTKhftU9wOPC6-413">
          <mxGeometry x="24" y="123" width="152" height="28" as="geometry" />
        </mxCell>
        <mxCell id="60jKKPhYTKhftU9wOPC6-419" value="&lt;font style=&quot;font-size: 18px;&quot;&gt;prev&lt;/font&gt;" style="rounded=0;whiteSpace=wrap;html=1;strokeColor=#9673a6;align=center;verticalAlign=middle;fontFamily=Helvetica;fontSize=12;fillColor=#e1d5e7;" vertex="1" parent="60jKKPhYTKhftU9wOPC6-413">
          <mxGeometry x="24" y="162" width="73" height="26" as="geometry" />
        </mxCell>
        <mxCell id="60jKKPhYTKhftU9wOPC6-420" value="&lt;font style=&quot;font-size: 18px;&quot;&gt;next&lt;/font&gt;" style="rounded=0;whiteSpace=wrap;html=1;strokeColor=#9673a6;align=center;verticalAlign=middle;fontFamily=Helvetica;fontSize=12;fillColor=#e1d5e7;" vertex="1" parent="60jKKPhYTKhftU9wOPC6-413">
          <mxGeometry x="103" y="162" width="73" height="26" as="geometry" />
        </mxCell>
        <mxCell id="60jKKPhYTKhftU9wOPC6-422" value="&lt;font style=&quot;font-size: 24px;&quot;&gt;state&lt;/font&gt;" style="rounded=1;whiteSpace=wrap;html=1;strokeColor=#b85450;align=center;verticalAlign=middle;fontFamily=Helvetica;fontSize=12;fillColor=#f8cecc;" vertex="1" parent="1">
          <mxGeometry x="376" y="1951" width="120" height="60" as="geometry" />
        </mxCell>
        <mxCell id="60jKKPhYTKhftU9wOPC6-424" value="&lt;font style=&quot;font-size: 24px;&quot;&gt;CLH&lt;/font&gt;" style="text;html=1;align=center;verticalAlign=middle;whiteSpace=wrap;rounded=0;fontFamily=Helvetica;fontSize=12;fontColor=default;" vertex="1" parent="1">
          <mxGeometry x="406" y="2290" width="60" height="30" as="geometry" />
        </mxCell>
        <mxCell id="60jKKPhYTKhftU9wOPC6-425" style="edgeStyle=orthogonalEdgeStyle;rounded=0;orthogonalLoop=1;jettySize=auto;html=1;exitX=1;exitY=0.25;exitDx=0;exitDy=0;entryX=0;entryY=0.25;entryDx=0;entryDy=0;fontFamily=Helvetica;fontSize=12;fontColor=default;" edge="1" parent="1" source="60jKKPhYTKhftU9wOPC6-401" target="60jKKPhYTKhftU9wOPC6-410">
          <mxGeometry relative="1" as="geometry" />
        </mxCell>
        <mxCell id="60jKKPhYTKhftU9wOPC6-426" style="edgeStyle=orthogonalEdgeStyle;rounded=0;orthogonalLoop=1;jettySize=auto;html=1;exitX=0;exitY=0.75;exitDx=0;exitDy=0;entryX=1;entryY=0.75;entryDx=0;entryDy=0;fontFamily=Helvetica;fontSize=12;fontColor=default;" edge="1" parent="1" source="60jKKPhYTKhftU9wOPC6-410" target="60jKKPhYTKhftU9wOPC6-401">
          <mxGeometry relative="1" as="geometry" />
        </mxCell>
        <mxCell id="60jKKPhYTKhftU9wOPC6-427" style="edgeStyle=orthogonalEdgeStyle;rounded=0;orthogonalLoop=1;jettySize=auto;html=1;exitX=1;exitY=0.25;exitDx=0;exitDy=0;entryX=0;entryY=0.25;entryDx=0;entryDy=0;fontFamily=Helvetica;fontSize=12;fontColor=default;" edge="1" parent="1" source="60jKKPhYTKhftU9wOPC6-411" target="60jKKPhYTKhftU9wOPC6-419">
          <mxGeometry relative="1" as="geometry" />
        </mxCell>
        <mxCell id="60jKKPhYTKhftU9wOPC6-429" style="edgeStyle=orthogonalEdgeStyle;rounded=0;orthogonalLoop=1;jettySize=auto;html=1;exitX=0;exitY=0.75;exitDx=0;exitDy=0;entryX=1;entryY=0.75;entryDx=0;entryDy=0;fontFamily=Helvetica;fontSize=12;fontColor=default;" edge="1" parent="1" source="60jKKPhYTKhftU9wOPC6-419" target="60jKKPhYTKhftU9wOPC6-411">
          <mxGeometry relative="1" as="geometry" />
        </mxCell>
        <mxCell id="60jKKPhYTKhftU9wOPC6-465" style="edgeStyle=orthogonalEdgeStyle;rounded=0;orthogonalLoop=1;jettySize=auto;html=1;exitX=0.5;exitY=0;exitDx=0;exitDy=0;entryX=0.5;entryY=1;entryDx=0;entryDy=0;fontFamily=Helvetica;fontSize=12;fontColor=default;" edge="1" parent="1" source="60jKKPhYTKhftU9wOPC6-439" target="60jKKPhYTKhftU9wOPC6-393">
          <mxGeometry relative="1" as="geometry" />
        </mxCell>
        <mxCell id="60jKKPhYTKhftU9wOPC6-439" value="&lt;span style=&quot;font-size: 18px;&quot;&gt;head&lt;/span&gt;" style="rounded=0;whiteSpace=wrap;html=1;align=center;verticalAlign=middle;fontFamily=Helvetica;fontSize=12;fillColor=#ffff88;strokeColor=#36393d;" vertex="1" parent="1">
          <mxGeometry x="165.5" y="2294" width="73" height="26" as="geometry" />
        </mxCell>
        <mxCell id="60jKKPhYTKhftU9wOPC6-464" style="edgeStyle=orthogonalEdgeStyle;rounded=0;orthogonalLoop=1;jettySize=auto;html=1;exitX=0.5;exitY=0;exitDx=0;exitDy=0;entryX=0.5;entryY=1;entryDx=0;entryDy=0;fontFamily=Helvetica;fontSize=12;fontColor=default;" edge="1" parent="1" source="60jKKPhYTKhftU9wOPC6-440" target="60jKKPhYTKhftU9wOPC6-414">
          <mxGeometry relative="1" as="geometry" />
        </mxCell>
        <mxCell id="60jKKPhYTKhftU9wOPC6-440" value="&lt;span style=&quot;font-size: 18px;&quot;&gt;tail&lt;/span&gt;" style="rounded=0;whiteSpace=wrap;html=1;strokeColor=#36393d;align=center;verticalAlign=middle;fontFamily=Helvetica;fontSize=12;fillColor=#ffff88;" vertex="1" parent="1">
          <mxGeometry x="633.5" y="2294" width="73" height="30" as="geometry" />
        </mxCell>
        <mxCell id="60jKKPhYTKhftU9wOPC6-449" style="edgeStyle=orthogonalEdgeStyle;rounded=0;orthogonalLoop=1;jettySize=auto;html=1;exitX=0.5;exitY=0;exitDx=0;exitDy=0;entryX=0.5;entryY=1;entryDx=0;entryDy=0;fontFamily=Helvetica;fontSize=12;fontColor=default;" edge="1" parent="1" source="60jKKPhYTKhftU9wOPC6-393" target="60jKKPhYTKhftU9wOPC6-422">
          <mxGeometry relative="1" as="geometry" />
        </mxCell>
        <mxCell id="60jKKPhYTKhftU9wOPC6-450" style="edgeStyle=orthogonalEdgeStyle;rounded=0;orthogonalLoop=1;jettySize=auto;html=1;exitX=0.5;exitY=0;exitDx=0;exitDy=0;entryX=0.5;entryY=1;entryDx=0;entryDy=0;fontFamily=Helvetica;fontSize=12;fontColor=default;" edge="1" parent="1" source="60jKKPhYTKhftU9wOPC6-405" target="60jKKPhYTKhftU9wOPC6-422">
          <mxGeometry relative="1" as="geometry" />
        </mxCell>
        <mxCell id="60jKKPhYTKhftU9wOPC6-451" style="edgeStyle=orthogonalEdgeStyle;rounded=0;orthogonalLoop=1;jettySize=auto;html=1;exitX=0.5;exitY=0;exitDx=0;exitDy=0;entryX=0.5;entryY=1;entryDx=0;entryDy=0;fontFamily=Helvetica;fontSize=12;fontColor=default;" edge="1" parent="1" source="60jKKPhYTKhftU9wOPC6-414" target="60jKKPhYTKhftU9wOPC6-422">
          <mxGeometry relative="1" as="geometry" />
        </mxCell>
        <mxCell id="60jKKPhYTKhftU9wOPC6-453" value="&lt;font style=&quot;font-size: 36px;&quot;&gt;AQS&lt;/font&gt;" style="text;html=1;align=center;verticalAlign=middle;whiteSpace=wrap;rounded=0;fontFamily=Helvetica;fontSize=12;fontColor=default;" vertex="1" parent="1">
          <mxGeometry x="406" y="1882" width="60" height="30" as="geometry" />
        </mxCell>
        <mxCell id="60jKKPhYTKhftU9wOPC6-458" value="&lt;h3&gt;&lt;span style=&quot;font-weight: normal;&quot;&gt;&lt;font style=&quot;font-size: 18px;&quot;&gt;exclusiveOwnerThread&lt;/font&gt;&lt;/span&gt;&lt;/h3&gt;&lt;p&gt;&lt;/p&gt;" style="ellipse;whiteSpace=wrap;html=1;rounded=1;strokeColor=#36393d;align=center;verticalAlign=middle;fontFamily=Helvetica;fontSize=12;fillColor=#ffcc99;" vertex="1" parent="1">
          <mxGeometry x="89.5" y="1917" width="225" height="80" as="geometry" />
        </mxCell>
        <mxCell id="60jKKPhYTKhftU9wOPC6-461" value="&lt;h3&gt;&lt;span style=&quot;font-weight: normal;&quot;&gt;&lt;font style=&quot;font-size: 18px;&quot;&gt;tryXxx&lt;/font&gt;&lt;/span&gt;&lt;/h3&gt;&lt;p&gt;&lt;/p&gt;" style="ellipse;whiteSpace=wrap;html=1;rounded=1;strokeColor=#36393d;align=center;verticalAlign=middle;fontFamily=Helvetica;fontSize=12;fillColor=#ffcc99;" vertex="1" parent="1">
          <mxGeometry x="557.5" y="1917" width="225" height="80" as="geometry" />
        </mxCell>
      </root>
    </mxGraphModel>
  </diagram>
</mxfile>
